<svg width="152" height="260" viewBox="0 0 152 260" fill="none" xmlns="http://www.w3.org/2000/svg">
<path d="M130 238.171C127.021 238.171 124.237 237.369 121.637 235.983L95.2142 220.296C91.26 218.097 93.2425 217.295 94.4342 216.894C99.8075 215.107 100.804 214.717 106.362 211.553C106.968 211.153 107.759 211.337 108.366 211.738L128.624 223.871C129.426 224.261 130.422 224.261 131.018 223.871L210.307 177.97C211.109 177.58 211.499 176.778 211.499 175.782V84.1534C211.499 83.1676 211.109 82.3659 210.307 81.9759L131.018 36.2701C130.227 35.8692 129.231 35.8692 128.624 36.2701L49.3133 81.9651C48.5225 82.3551 48.1217 83.3626 48.1217 84.1426V175.76C48.1217 176.551 48.5225 177.558 49.3133 177.948L70.98 190.483C82.7017 196.419 90.0683 189.453 90.0683 182.52V92.1051C90.0683 90.9134 91.0542 89.7109 92.4517 89.7109H102.592C103.762 89.7109 104.975 90.7076 104.975 92.1051V182.531C104.975 198.228 96.4383 207.383 81.5317 207.383C76.96 207.383 73.385 207.383 63.245 202.399L42.3908 190.493C39.85 189.016 37.7413 186.898 36.2755 184.351C34.8098 181.803 34.0384 178.916 34.0383 175.977V84.3484C34.0383 78.3901 37.2125 72.8217 42.3908 69.8426L121.647 23.9417C124.22 22.5657 127.093 21.8458 130.011 21.8458C132.929 21.8458 135.801 22.5657 138.374 23.9417L217.642 69.8426C222.831 72.8109 225.994 78.3901 225.994 84.3484V175.977C225.994 181.924 222.82 187.493 217.642 190.493L138.374 236.383C135.763 237.575 132.784 238.171 130 238.171ZM154.44 175.164C119.665 175.164 112.515 159.261 112.515 145.763C112.515 144.571 113.512 143.368 114.898 143.368H125.233C126.425 143.368 127.411 144.159 127.411 145.362C129.003 155.881 133.564 161.059 154.646 161.059C171.329 161.059 178.501 157.268 178.501 148.33C178.501 143.163 176.497 139.393 150.475 136.814C128.819 134.648 115.31 129.848 115.31 112.569C115.31 96.4817 128.819 86.9376 151.482 86.9376C176.908 86.9376 189.432 95.7017 191.013 114.758C190.994 115.401 190.783 116.023 190.407 116.545C190.006 116.935 189.421 117.336 188.825 117.336H178.501C177.99 117.325 177.498 117.145 177.102 116.823C176.706 116.501 176.428 116.056 176.312 115.559C173.918 104.596 167.765 101.043 151.482 101.043C133.185 101.043 130.997 107.402 130.997 112.168C130.997 117.921 133.564 119.708 158.232 122.893C182.672 126.068 194.198 130.639 194.198 147.745C193.982 165.241 179.692 175.164 154.44 175.164Z" fill="#679F62" fill-opacity="0.3"/>
</svg>
