<svg width="261" height="180" viewBox="0 0 261 180" fill="none" xmlns="http://www.w3.org/2000/svg">
<path d="M260.068 115.827C260.068 98.5989 238.493 82.2718 205.414 72.1469C213.048 38.4324 209.655 11.6092 194.706 3.02158C191.261 1.00719 187.232 0.0530094 182.832 0.0530094V11.8743C185.271 11.8743 187.232 12.3514 188.875 13.2525C196.085 17.3873 199.212 33.1314 196.774 53.3813C196.191 58.3642 195.237 63.6122 194.07 68.9663C183.68 66.4218 172.336 64.4604 160.409 63.1881C153.252 53.3813 145.831 44.4755 138.357 36.683C155.638 20.621 171.859 11.8213 182.885 11.8213V0C168.307 0 149.224 10.39 129.928 28.4135C110.632 10.496 91.5486 0.212042 76.9708 0.212042V12.0333C87.9439 12.0333 104.218 20.78 121.499 36.7361C114.078 44.5286 106.657 53.3813 99.6061 63.1881C87.6258 64.4604 76.2817 66.4218 65.8917 69.0193C64.6724 63.7182 63.7713 58.5763 63.1351 53.6463C60.6437 33.3964 63.7182 17.6524 70.8746 13.4646C72.4649 12.5104 74.5323 12.0863 76.9708 12.0863V0.265051C72.5179 0.265051 68.4892 1.21923 64.9905 3.23362C50.0946 11.8213 46.755 38.5914 54.4415 72.1999C21.4691 82.3778 0 98.6519 0 115.827C0 133.056 21.5751 149.383 54.6535 159.508C47.02 193.222 50.4127 220.045 65.3616 228.633C68.8072 230.647 72.836 231.602 77.2889 231.602C91.8667 231.602 110.95 221.211 130.246 203.188C149.542 221.105 168.625 231.389 183.203 231.389C187.656 231.389 191.685 230.435 195.184 228.421C210.079 219.833 213.419 193.063 205.733 159.455C238.599 149.33 260.068 133.003 260.068 115.827ZM191.049 80.4695C189.087 87.3078 186.649 94.3581 183.892 101.408C181.719 97.1677 179.439 92.9269 176.948 88.686C174.51 84.4452 171.912 80.3104 169.315 76.2817C176.842 77.3949 184.104 78.7731 191.049 80.4695ZM166.77 136.925C162.635 144.082 158.394 150.867 153.995 157.175C146.096 157.864 138.092 158.235 130.034 158.235C122.029 158.235 114.025 157.864 106.179 157.228C101.78 150.92 97.4857 144.188 93.3509 137.084C89.3222 130.14 85.6645 123.09 82.3248 115.986C85.6115 108.883 89.3222 101.78 93.2979 94.8352C97.4327 87.6788 101.674 80.8935 106.073 74.5853C113.972 73.8962 121.976 73.5251 130.034 73.5251C138.039 73.5251 146.043 73.8962 153.889 74.5323C158.288 80.8405 162.582 87.5728 166.717 94.6762C170.746 101.621 174.404 108.671 177.743 115.774C174.404 122.878 170.746 129.981 166.77 136.925ZM183.892 130.034C186.755 137.137 189.193 144.241 191.208 151.132C184.263 152.828 176.948 154.26 169.368 155.373C171.965 151.291 174.563 147.103 177.001 142.809C179.439 138.569 181.719 134.275 183.892 130.034ZM130.14 186.596C125.21 181.507 120.28 175.835 115.403 169.633C120.174 169.845 125.051 170.004 129.981 170.004C134.964 170.004 139.894 169.898 144.718 169.633C139.947 175.835 135.017 181.507 130.14 186.596ZM90.7004 155.373C83.173 154.26 75.9106 152.881 68.9663 151.185C70.9276 144.347 73.3661 137.296 76.1226 130.246C78.296 134.487 80.5755 138.728 83.067 142.968C85.5584 147.209 88.1029 151.344 90.7004 155.373ZM129.875 45.0587C134.805 50.1476 139.735 55.8197 144.612 62.0219C139.841 61.8099 134.964 61.6508 130.034 61.6508C125.051 61.6508 120.121 61.7569 115.297 62.0219C120.068 55.8197 124.998 50.1476 129.875 45.0587ZM90.6474 76.2817C88.0499 80.3634 85.4524 84.5512 83.014 88.8451C80.5755 93.0859 78.296 97.3267 76.1226 101.568C73.2601 94.4641 70.8216 87.3608 68.8072 80.4695C75.7516 78.8261 83.067 77.3949 90.6474 76.2817ZM42.6732 142.65C23.9076 134.646 11.7683 124.15 11.7683 115.827C11.7683 107.505 23.9076 96.9556 42.6732 89.0041C47.2321 87.0427 52.215 85.2934 57.357 83.6501C60.3786 94.0401 64.3544 104.854 69.2843 115.933C64.4074 126.959 60.4846 137.72 57.5161 148.057C52.2681 146.414 47.2851 144.612 42.6732 142.65ZM71.1927 218.402C63.9833 214.267 60.8557 198.523 63.2942 178.273C63.8773 173.29 64.8315 168.042 65.9977 162.688C76.3877 165.233 87.7319 167.194 99.6592 168.466C106.816 178.273 114.237 187.179 121.711 194.971C104.43 211.034 88.209 219.833 77.1828 219.833C74.7974 219.78 72.783 219.303 71.1927 218.402ZM196.933 178.008C199.424 198.258 196.35 214.002 189.193 218.19C187.603 219.144 185.536 219.568 183.097 219.568C172.124 219.568 155.85 210.822 138.569 194.865C145.99 187.073 153.411 178.22 160.462 168.413C172.442 167.141 183.786 165.18 194.176 162.582C195.396 167.936 196.35 173.078 196.933 178.008ZM217.342 142.65C212.783 144.612 207.8 146.361 202.658 148.004C199.636 137.614 195.661 126.8 190.731 115.721C195.608 104.695 199.53 93.934 202.499 83.5971C207.747 85.2404 212.73 87.0427 217.395 89.0041C236.16 97.0086 248.3 107.505 248.3 115.827C248.247 124.15 236.107 134.699 217.342 142.65Z" fill="#00466C" fill-opacity="0.3"/>
<path d="M129.981 140.053C143.36 140.053 154.207 129.206 154.207 115.827C154.207 102.447 143.36 91.6012 129.981 91.6012C116.601 91.6012 105.755 102.447 105.755 115.827C105.755 129.206 116.601 140.053 129.981 140.053Z" fill="#00466C" fill-opacity="0.3"/>
</svg>
